<mxfile host="app.diagrams.net" modified="2023-11-15T00:56:37.093Z" agent="Mozilla/5.0 (Windows NT 10.0; Win64; x64) AppleWebKit/537.36 (KHTML, like Gecko) Chrome/119.0.0.0 Safari/537.36" version="22.1.1" etag="GK5Abs9J1P-sW78uKp-5" type="github">
  <diagram name="Page-1" id="h-hHqpUnpeoOMQe769Zt">
    <mxGraphModel>
      <root>
        <mxCell id="0" />
        <mxCell id="1" parent="0" />
      </root>
    </mxGraphModel>
  </diagram>
</mxfile>
